# Wavefront OBJ exported by MilkShape 3D

mtllib TransTeachersDeskMesh.mtl

v -25.113745 53.000000 50.000000
v -25.113745 53.000000 50.000000
v -25.113745 53.000000 50.000000
v -25.113745 53.000000 50.000000
v -25.113745 53.000000 -50.000000
v -25.113745 53.000000 -50.000000
v -25.113745 53.000000 -50.000000
v -25.113745 53.000000 -50.000000
v 24.886255 53.000000 50.000000
v 24.886255 53.000000 50.000000
v 24.886255 53.000000 50.000000
v 24.886255 53.000000 -50.000000
v 24.886255 53.000000 -50.000000
v 24.886255 53.000000 -50.000000
v -25.113745 40.000000 50.000000
v -25.113745 40.000000 50.000000
v -25.113745 40.000000 50.000000
v 24.886255 40.000000 50.000000
v 24.886255 40.000000 50.000000
v 24.886255 40.000000 50.000000
v -25.113745 40.000000 -50.000000
v -25.113745 40.000000 -50.000000
v -25.113745 40.000000 -50.000000
v 24.886255 40.000000 -50.000000
v 24.886255 40.000000 -50.000000
v 24.886255 40.000000 -50.000000
v -21.803566 40.000000 47.627922
v -21.803566 40.000000 47.627922
v -21.803566 0.000000 47.627922
v -21.803566 0.000000 47.627922
v -14.513564 40.000000 47.627922
v -14.513564 40.000000 47.627922
v -14.513564 0.000000 47.627922
v -14.513564 0.000000 47.627922
v -21.803566 40.000000 -39.602180
v -21.803566 40.000000 -39.602180
v -21.803566 0.000000 -39.602180
v -21.803566 0.000000 -39.602180
v -14.513564 40.000000 -39.602180
v -14.513564 40.000000 -39.602180
v -14.513564 0.000000 -39.602180
v -14.513564 0.000000 -39.602180
v 14.490275 40.000000 47.627922
v 14.490275 40.000000 47.627922
v 14.490275 0.000000 47.627922
v 14.490275 0.000000 47.627922
v 21.780275 40.000000 47.627922
v 21.780275 40.000000 47.627922
v 21.780275 0.000000 47.627922
v 21.780275 0.000000 47.627922
v 14.490275 40.000000 -39.602180
v 14.490275 40.000000 -39.602180
v 14.490275 0.000000 -39.602180
v 14.490275 0.000000 -39.602180
v 21.780275 40.000000 -39.602180
v 21.780275 40.000000 -39.602180
v 21.780275 0.000000 -39.602180
v 21.780275 0.000000 -39.602180
v -21.803566 40.000000 40.427925
v -21.803566 40.000000 40.427925
v -14.513564 40.000000 40.427925
v -14.513564 40.000000 40.427925
v -21.803566 0.000000 40.427925
v -21.803566 0.000000 40.427925
v -14.513564 0.000000 40.427925
v -14.513564 0.000000 40.427925
v 14.490275 40.000000 40.427925
v 14.490275 40.000000 40.427925
v 21.780275 40.000000 40.427925
v 21.780275 40.000000 40.427925
v 14.490275 0.000000 40.427925
v 14.490275 0.000000 40.427925
v 21.780275 0.000000 40.427925
v 21.780275 0.000000 40.427925
v 14.490275 40.000000 -46.802177
v 14.490275 40.000000 -46.802177
v 21.780275 40.000000 -46.802177
v 21.780275 40.000000 -46.802177
v 14.490275 0.000000 -46.802177
v 14.490275 0.000000 -46.802177
v 21.780275 0.000000 -46.802177
v 21.780275 0.000000 -46.802177
v -21.803566 40.000000 -46.802177
v -21.803566 40.000000 -46.802177
v -14.513564 40.000000 -46.802177
v -14.513564 40.000000 -46.802177
v -21.803566 0.000000 -46.802177
v -21.803566 0.000000 -46.802177
v -14.513564 0.000000 -46.802177
v -14.513564 0.000000 -46.802177
# 90 vertices

vt 0.988235 0.776471
vt 0.007843 0.776471
vt 0.007843 0.992157
vt 0.988235 0.992157
vt 0.988235 0.509804
vt 0.007843 0.509804
vt 0.803922 0.470588
vt 0.352941 0.470588
vt 0.352941 0.321569
vt 0.803922 0.321569
vt 0.517647 0.109804
vt 0.517647 0.180392
vt 0.098039 0.180392
vt 0.098039 0.109804
vt 0.101961 0.180392
vt 0.101961 0.113725
vt 0.513726 0.113725
vt 0.015686 0.321569
vt 0.980392 0.321569
vt 0.980392 0.466667
vt 0.513726 0.180392
vt 0.015686 0.466667
# 22 texture coordinates

vn 0.000000 -1.000000 0.000000
vn 0.000000 1.000000 0.000000
vn 0.000000 0.000000 -1.000000
vn -1.000000 0.000000 0.000000
vn 0.000000 0.000000 1.000000
vn 1.000000 0.000000 0.000000
# 6 normals

g TransTeachersDeskTex0
usemtl TransTeachersDeskTex0
s 1
f 15/1/1 21/2/1 24/3/1
f 24/3/1 18/4/1 15/1/1
f 2/5/2 9/4/2 12/3/2
f 12/3/2 6/6/2 2/5/2
f 7/7/3 13/8/3 26/9/3
f 26/9/3 23/10/3 7/7/3
f 66/11/3 63/12/3 59/13/3
f 90/11/3 87/12/3 83/13/3
f 59/13/3 62/14/3 66/11/3
f 82/11/3 79/12/3 75/13/3
f 67/13/3 70/14/3 74/11/3
f 74/11/3 71/12/3 67/13/3
f 83/13/3 86/14/3 90/11/3
f 75/13/3 78/14/3 82/11/3
f 36/15/4 84/16/4 88/17/4
f 22/18/4 17/19/4 4/20/4
f 88/17/4 37/21/4 36/15/4
f 4/20/4 8/22/4 22/18/4
f 80/17/4 53/21/4 52/15/4
f 44/15/4 68/16/4 72/17/4
f 64/17/4 29/21/4 28/15/4
f 28/15/4 60/16/4 64/17/4
f 52/15/4 76/16/4 80/17/4
f 72/17/4 45/21/4 44/15/4
f 56/14/5 51/13/5 54/12/5
f 54/12/5 58/11/5 56/14/5
f 38/12/5 42/11/5 40/14/5
f 40/14/5 35/13/5 38/12/5
f 46/12/5 50/11/5 48/14/5
f 10/8/5 3/7/5 16/10/5
f 16/10/5 19/9/5 10/8/5
f 30/12/5 34/11/5 32/14/5
f 48/14/5 43/13/5 46/12/5
f 32/14/5 27/13/5 30/12/5
f 49/21/6 73/17/6 69/16/6
f 41/21/6 89/17/6 85/16/6
f 69/16/6 47/15/6 49/21/6
f 85/16/6 39/15/6 41/21/6
f 77/16/6 55/15/6 57/21/6
f 57/21/6 81/17/6 77/16/6
f 20/19/6 25/18/6 14/22/6
f 14/22/6 11/20/6 20/19/6
f 33/21/6 65/17/6 61/16/6
f 61/16/6 31/15/6 33/21/6
# 44 triangles in group

# 44 triangles total

